<svg xmlns="http://www.w3.org/2000/svg" viewBox="0 0 48 48"><title>24-Hamburger&amp;amp;French fries</title><g id="_24-Hamburger_French_fries" data-name="24-Hamburger&amp;French fries"><path d="M27.9,28H8.105A5.133,5.133,0,0,1,3,22.852a5.07,5.07,0,0,1,.587-2.4C4.789,18.222,9.347,14,18,14s13.211,4.222,14.413,6.454a5.07,5.07,0,0,1,.587,2.4A5.133,5.133,0,0,1,27.9,28ZM18,16c-7.994,0-11.843,3.9-12.652,5.4A3.075,3.075,0,0,0,5,22.852,3.131,3.131,0,0,0,8.105,26H27.9A3.131,3.131,0,0,0,31,22.852a3.075,3.075,0,0,0-.348-1.45C29.843,19.9,25.994,16,18,16Z"/><rect x="13" y="18" width="2" height="2"/><rect x="17" y="17" width="2" height="2"/><rect x="21" y="18" width="2" height="2"/><rect x="9" y="20" width="2" height="2"/><rect x="25" y="20" width="2" height="2"/><rect x="15" y="21" width="2" height="2"/><rect x="19" y="21" width="2" height="2"/><path d="M28,44H8a5.006,5.006,0,0,1-5-5V37a1,1,0,0,1,1-1H8v2H5v1a3,3,0,0,0,3,3H28a3,3,0,0,0,3-3V38H23V36h9a1,1,0,0,1,1,1v2A5.006,5.006,0,0,1,28,44Z"/><path d="M8,34H7a4,4,0,0,1-4-4,1,1,0,0,1,.293-.707l1-1,1.414,1.414-.671.671A2,2,0,0,0,7,32H8a2,2,0,0,0,2-2V29h2v1A4,4,0,0,1,8,34Z"/><path d="M15,34H14a4,4,0,0,1-4-4V29h2v1a2,2,0,0,0,2,2h1a2,2,0,0,0,2-2V29h2v1A4,4,0,0,1,15,34Z"/><path d="M22,34H21a4,4,0,0,1-4-4V29h2v1a2,2,0,0,0,2,2h1a2,2,0,0,0,2-2V29h2v1A4,4,0,0,1,22,34Z"/><path d="M29,34H28a4,4,0,0,1-4-4V29h2v1a2,2,0,0,0,2,2h1a2,2,0,0,0,1.964-1.622l-.671-.671,1.414-1.414,1,1A1,1,0,0,1,33,30,4,4,0,0,1,29,34Z"/><path d="M18,41a1,1,0,0,1-.537-.156l-11-7,1.074-1.688L18,38.814l10.463-6.658,1.074,1.688-11,7A1,1,0,0,1,18,41Z"/><path d="M47,48H1a1,1,0,0,1-1-1V44H2v2H46V44h2v3A1,1,0,0,1,47,48Z"/><path d="M44,44H34V42h9.087L46,9.91,48,10.09l-3,33A1,1,0,0,1,44,44Z"/><rect x="34" y="19" width="12" height="2"/><path d="M45,34H41a1,1,0,0,1-.707-.293l-6-6,1.414-1.414L41.414,32H45Z"/><path d="M44,20H42V8H40V18H38V7a1,1,0,0,1,1-1h4a1,1,0,0,1,1,1Z"/><path d="M40,19H38V5H36V18H34V4a1,1,0,0,1,1-1h4a1,1,0,0,1,1,1Z"/><path d="M36,19H34V2H32V16H30V1a1,1,0,0,1,1-1h4a1,1,0,0,1,1,1Z"/><path d="M32,16H30V6H28v8H26V5a1,1,0,0,1,1-1h4a1,1,0,0,1,1,1Z"/><path d="M28,13H26V4H24v9H22V3a1,1,0,0,1,1-1h4a1,1,0,0,1,1,1Z"/><path d="M24,12H22V9H20v3H18V8a1,1,0,0,1,1-1h4a1,1,0,0,1,1,1Z"/><rect x="43" y="9" width="5" height="2"/></g></svg>