<?xml version="1.0" encoding="UTF-8"?>
<!DOCTYPE svg PUBLIC "-//W3C//DTD SVG 1.1//EN" "http://www.w3.org/Graphics/SVG/1.1/DTD/svg11.dtd">
<!-- Creator: CorelDRAW -->
<svg xmlns="http://www.w3.org/2000/svg" xml:space="preserve" width="2048px" height="2048px" style="shape-rendering:geometricPrecision; text-rendering:geometricPrecision; image-rendering:optimizeQuality; fill-rule:evenodd; clip-rule:evenodd"
viewBox="0 0 2048 2048"
 xmlns:xlink="http://www.w3.org/1999/xlink">
 <defs>
  <style type="text/css">
   <![CDATA[
    .fil2 {fill:none}
    .fil1 {fill:#512DA8}
    .fil0 {fill:#7E57C2}
    .fil4 {fill:#D7FBFF}
    .fil8 {fill:#E5E7AA}
    .fil3 {fill:#63EDFF;fill-rule:nonzero}
    .fil7 {fill:#A7FFEB;fill-rule:nonzero}
    .fil5 {fill:#BD7E55;fill-rule:nonzero}
    .fil6 {fill:#FFC107;fill-rule:nonzero}
   ]]>
  </style>
   <clipPath id="id0">
    <path d="M1024 -0.0011811c565.541,0 1024,458.461 1024,1024 0,565.541 -458.461,1024 -1024,1024 -565.541,0 -1024,-458.461 -1024,-1024 0,-565.541 458.461,-1024 1024,-1024z"/>
   </clipPath>
 </defs>
 <g id="Layer_x0020_1">
  <metadata id="CorelCorpID_0Corel-Layer"/>
  <path class="fil0" d="M1024 -0.0011811c565.541,0 1024,458.461 1024,1024 0,565.541 -458.461,1024 -1024,1024 -565.541,0 -1024,-458.461 -1024,-1024 0,-565.541 458.461,-1024 1024,-1024z"/>
  <g style="clip-path:url(#id0)">
   <g id="_517158880">
    <g>
     <polygon id="_2603327601" class="fil1" points="1451.7,523.075 2587.58,1658.96 2588.93,1660.75 2590.1,1662.65 2591.08,1664.65 2591.87,1666.74 2592.45,1668.9 2592.83,1671.11 2592.99,1673.36 2592.93,1675.63 2592.64,1677.91 2592.12,1680.19 2591.35,1682.44 1455.47,546.556 1456.24,544.303 1456.76,542.028 1457.05,539.746 1457.11,537.474 1456.95,535.224 1456.57,533.014 1455.99,530.857 1455.2,528.77 1454.22,526.767 1453.05,524.865 "/>
     <polygon id="_260332784" class="fil1" points="1455.47,546.556 2591.35,1682.44 2590.36,1684.6 2589.19,1686.62 2587.83,1688.48 2586.32,1690.17 2584.66,1691.7 2582.87,1693.05 2580.97,1694.22 2578.97,1695.2 2576.88,1695.99 2574.72,1696.57 2572.51,1696.95 2570.26,1697.11 2567.99,1697.05 2565.71,1696.76 2563.43,1696.24 2561.18,1695.47 1425.3,559.591 1427.55,560.356 1429.83,560.879 1432.11,561.168 1434.38,561.228 1436.63,561.068 1438.84,560.692 1441,560.108 1443.08,559.322 1445.09,558.341 1446.99,557.17 1448.78,555.819 1450.44,554.291 1451.95,552.595 1453.31,550.735 1454.48,548.721 "/>
     <polygon id="_260333672" class="fil1" points="1425.3,559.591 2561.18,1695.47 2445.08,1649.22 1309.19,513.335 "/>
     <polygon id="_260333336" class="fil1" points="1309.19,513.335 2445.08,1649.22 2444.11,1648.85 2443.15,1648.5 2442.19,1648.19 2441.23,1647.9 2440.27,1647.63 2439.32,1647.4 2438.37,1647.19 2437.42,1647 1301.54,511.122 1302.49,511.307 1303.44,511.516 1304.39,511.752 1305.35,512.014 1306.31,512.304 1307.27,512.62 1308.23,512.964 "/>
     <polygon id="_260333456" class="fil1" points="1301.54,511.122 2437.42,1647 2435.1,1646.66 2432.76,1646.46 2430.42,1646.4 2428.09,1646.49 2425.75,1646.71 2423.42,1647.06 2421.1,1647.54 2418.79,1648.14 2416.49,1648.87 2414.22,1649.71 2411.96,1650.67 2409.72,1651.74 2407.51,1652.91 2405.33,1654.18 2403.18,1655.56 2401.06,1657.02 1265.18,521.142 1267.3,519.674 1269.45,518.301 1271.63,517.027 1273.84,515.855 1276.08,514.789 1278.34,513.832 1280.61,512.989 1282.91,512.262 1285.22,511.657 1287.54,511.177 1289.87,510.825 1292.21,510.605 1294.54,510.521 1296.88,510.577 1299.21,510.776 "/>
     <polygon id="_260333048" class="fil1" points="1265.18,521.142 2401.06,1657.02 2398.74,1658.77 2396.47,1660.62 2394.26,1662.56 2392.11,1664.6 2390.03,1666.73 2388.01,1668.94 2386.06,1671.23 2384.18,1673.6 2382.38,1676.04 2380.66,1678.55 2379.02,1681.12 2377.47,1683.76 2376,1686.44 2374.62,1689.18 2373.34,1691.97 2372.16,1694.8 1236.28,558.915 1237.46,556.087 1238.74,553.301 1240.12,550.562 1241.59,547.874 1243.14,545.241 1244.78,542.669 1246.5,540.159 1248.3,537.717 1250.18,535.348 1252.13,533.054 1254.15,530.843 1256.23,528.716 1258.38,526.678 1260.59,524.733 1262.86,522.886 "/>
     <polygon id="_260333120" class="fil1" points="1236.28,558.915 2372.16,1694.8 2371.79,1695.75 2371.43,1696.7 2371.08,1697.65 2370.74,1698.61 2370.42,1699.57 2370.11,1700.53 2369.81,1701.49 2369.52,1702.46 2369.25,1703.42 2368.99,1704.39 2368.74,1705.36 2368.5,1706.33 2368.28,1707.3 2368.07,1708.28 2367.87,1709.25 2367.69,1710.23 1231.81,574.345 1231.99,573.37 1232.19,572.396 1232.4,571.422 1232.62,570.449 1232.86,569.478 1233.1,568.508 1233.37,567.539 1233.64,566.573 1233.93,565.607 1234.23,564.644 1234.54,563.683 1234.86,562.724 1235.2,561.767 1235.55,560.814 1235.91,559.863 "/>
     <polygon id="_260333480" class="fil1" points="1231.81,574.345 2367.69,1710.23 2349.66,1809.8 1213.78,673.916 "/>
     <polygon id="_260333168" class="fil1" points="1213.78,673.916 2349.66,1809.8 2349.51,1810.61 1213.63,674.727 "/>
     <polygon id="_260333528" class="fil1" points="1244.48,674.727 2380.36,1810.61 2380.29,1811.15 1244.41,675.27 "/>
     <polygon id="_260334416" class="fil1" points="1297.79,683.763 2433.67,1819.65 2435.01,1821.44 2436.18,1823.37 2437.16,1825.41 2437.95,1827.55 2438.52,1829.79 2438.88,1832.1 2439,1834.49 1303.12,698.606 1303,696.22 1302.64,693.903 1302.07,691.667 1301.28,689.523 1300.3,687.484 1299.13,685.56 "/>
     <polygon id="_260333912" class="fil1" points="1303.12,698.606 2439,1834.49 2438.99,1835.08 2438.97,1835.68 2438.93,1836.27 2438.88,1836.85 2438.81,1837.43 2438.73,1838.01 2438.64,1838.58 2438.53,1839.15 1302.65,703.267 1302.76,702.7 1302.85,702.127 1302.93,701.551 1303,700.969 1303.05,700.385 1303.09,699.795 1303.11,699.203 "/>
     <polygon id="_260334104" class="fil1" points="591.171,702.038 1727.05,1837.92 1727.02,1837.93 591.142,702.043 "/>
     <polygon id="_260334440" class="fil1" points="1179.86,1527.83 2315.74,2663.71 2315.68,2665.12 2315.59,2666.51 2315.47,2667.89 2315.32,2669.27 2315.13,2670.64 2314.92,2671.99 2314.67,2673.34 2314.39,2674.67 2314.08,2676 2313.74,2677.31 2313.38,2678.61 2312.98,2679.9 2312.56,2681.18 2312.11,2682.44 2311.63,2683.69 2311.12,2684.92 2310.59,2686.14 2310.03,2687.35 2309.44,2688.54 2308.83,2689.71 2308.2,2690.87 2307.54,2692.02 2306.85,2693.14 2306.14,2694.25 2305.41,2695.34 2304.65,2696.41 2303.87,2697.47 2303.07,2698.5 2302.24,2699.52 2301.4,2700.51 2300.53,2701.49 2299.64,2702.44 1163.76,1566.56 1164.65,1565.61 1165.52,1564.63 1166.36,1563.64 1167.19,1562.62 1167.99,1561.59 1168.77,1560.53 1169.52,1559.46 1170.26,1558.37 1170.97,1557.26 1171.65,1556.13 1172.32,1554.99 1172.95,1553.83 1173.56,1552.66 1174.15,1551.47 1174.71,1550.26 1175.24,1549.04 1175.75,1547.81 1176.23,1546.56 1176.68,1545.29 1177.1,1544.02 1177.5,1542.73 1177.86,1541.43 1178.2,1540.11 1178.51,1538.79 1178.79,1537.46 1179.03,1536.11 1179.25,1534.75 1179.44,1533.39 1179.59,1532.01 1179.71,1530.63 1179.8,1529.23 "/>
     <polygon id="_260334272" class="fil1" points="1163.76,1566.56 2299.64,2702.44 2298.67,2703.44 2297.68,2704.41 2296.66,2705.36 2295.62,2706.28 2294.56,2707.18 2293.48,2708.05 2292.38,2708.89 2291.26,2709.71 2290.12,2710.5 2288.97,2711.26 2287.79,2711.99 2286.59,2712.69 2285.38,2713.36 2284.15,2714.01 2282.9,2714.62 2281.64,2715.2 2280.36,2715.75 2279.07,2716.27 2277.76,2716.75 2276.43,2717.2 2275.09,2717.62 2273.74,2718.01 2272.38,2718.36 2271,2718.67 2269.61,2718.95 2268.21,2719.2 2266.8,2719.4 2265.37,2719.58 2263.94,2719.71 2262.49,2719.81 2261.04,2719.86 2259.58,2719.88 1123.69,1584 1125.16,1583.98 1126.61,1583.92 1128.06,1583.83 1129.49,1583.69 1130.91,1583.52 1132.33,1583.31 1133.73,1583.07 1135.12,1582.79 1136.5,1582.47 1137.86,1582.12 1139.21,1581.74 1140.55,1581.32 1141.88,1580.87 1143.19,1580.38 1144.48,1579.87 1145.76,1579.32 1147.02,1578.74 1148.27,1578.12 1149.5,1577.48 1150.71,1576.81 1151.91,1576.11 1153.09,1575.38 1154.24,1574.61 1155.38,1573.83 1156.5,1573.01 1157.6,1572.17 1158.68,1571.3 1159.74,1570.4 1160.78,1569.48 1161.8,1568.53 1162.79,1567.56 "/>
     <polygon id="_260334320" class="fil1" points="1123.69,1584 2259.58,2719.88 1906.19,2719.88 770.311,1584 "/>
     <polygon id="_260334368" class="fil1" points="770.311,1584 1906.19,2719.88 1904.73,2719.86 1903.27,2719.81 1901.83,2719.71 1900.4,2719.58 1898.97,2719.4 1897.56,2719.2 1896.16,2718.95 1894.77,2718.67 1893.39,2718.36 1892.02,2718.01 1890.67,2717.62 1889.34,2717.2 1888.01,2716.75 1886.7,2716.27 1885.41,2715.75 1884.13,2715.2 1882.86,2714.62 1881.62,2714.01 1880.39,2713.36 1879.17,2712.69 1877.98,2711.99 1876.8,2711.26 1875.64,2710.5 1874.5,2709.71 1873.38,2708.89 1872.28,2708.05 1871.2,2707.18 1870.14,2706.28 734.264,1570.4 735.322,1571.3 736.401,1572.17 737.502,1573.01 738.622,1573.83 739.762,1574.61 740.92,1575.38 742.097,1576.11 743.292,1576.81 744.505,1577.48 745.736,1578.12 746.983,1578.74 748.245,1579.32 749.526,1579.87 750.82,1580.38 752.13,1580.87 753.454,1581.32 754.792,1581.74 756.143,1582.12 757.509,1582.47 758.886,1582.79 760.276,1583.07 761.678,1583.31 763.091,1583.52 764.515,1583.69 765.949,1583.83 767.394,1583.92 768.847,1583.98 "/>
     <polygon id="_260334032" class="fil1" points="1302.65,703.267 2438.53,1839.15 2315.74,2663.71 1179.86,1527.83 "/>
    </g>
    <path id="_517159576" class="fil1" d="M633.114 674.727l533.273 0 0.145276 -0.810237 19.5166 -107.776c1.50709,-8.32323 3.88937,-16.5012 7.02048,-24.3614 9.28111,-23.2925 25.3512,-44.2441 44.9469,-58.376 20.9173,-15.0862 45.9626,-22.7043 71.7308,-18.039 5.55945,1.0063 11.1,2.57953 16.5827,4.76339l116.107 46.2567c11.9303,4.7315 17.7673,18.241 13.0347,30.1713 -4.7315,11.9303 -18.241,17.7673 -30.1713,13.0358l-116.106 -46.2567c-2.57481,-1.02638 -5.13071,-1.7563 -7.65119,-2.21221 -12.3945,-2.24528 -25.1717,1.94646 -36.3638,10.0193 -12.5162,9.02599 -22.8508,22.5839 -28.9028,37.7729 -2.01024,5.04804 -3.52796,10.2295 -4.46929,15.4299l-18.0307 99.5717 -0.146457 0.810237 30.854 0 -0.0708662 0.543308 35.3693 0c12.887,0 23.3351,10.4492 23.3351,23.3362 0,1.59567 -0.159449,3.15355 -0.465355,4.66063l-122.795 824.565c-0.429922,14.9906 -6.51142,28.6547 -16.0973,38.7307 -10.2343,10.761 -24.4134,17.439 -40.0654,17.439l-353.384 0c-15.652,0 -29.8323,-6.67914 -40.0654,-17.4378 -9.58465,-10.0772 -15.6662,-23.7414 -16.0973,-38.7319l-122.978 -825.793 -0.0283465 0.00472441c-1.89803,-12.7465 6.89646,-24.6201 19.6441,-26.5181 1.24961,-0.185433 2.48858,-0.266929 3.71339,-0.255118l18.6957 0 -0.0814961 -0.543308z"/>
   </g>
  </g>
  <path class="fil2" d="M1024 -0.0011811c565.541,0 1024,458.461 1024,1024 0,565.541 -458.461,1024 -1024,1024 -565.541,0 -1024,-458.461 -1024,-1024 0,-565.541 458.461,-1024 1024,-1024z"/>
  <path class="fil3" d="M614.5 675.27l665.282 0c12.887,0 23.3351,10.4492 23.3351,23.3362 0,1.59567 -0.159449,3.15355 -0.465355,4.66063l-122.795 824.565c-0.429922,14.9906 -6.51142,28.6547 -16.0973,38.7307 -10.2343,10.761 -24.4134,17.439 -40.0654,17.439l-353.384 0c-15.652,0 -29.8323,-6.67914 -40.0654,-17.4378 -9.58465,-10.0772 -15.6662,-23.7414 -16.0973,-38.7319l-122.978 -825.793 -0.0283465 0.00472441c-1.89803,-12.7465 6.89646,-24.6201 19.6441,-26.5181 1.24961,-0.185433 2.48858,-0.266929 3.71339,-0.255118z"/>
  <path class="fil4" d="M633.114 674.727l127.195 846.232c0.426378,2.86299 1.89685,11.1366 3.77953,13.4717 1.66654,1.75276 3.75709,2.90197 6.22205,2.90197l353.384 0c2.46614,0 4.5567,-1.15158 6.22323,-2.90433 1.88268,-2.33504 3.35315,-10.6063 3.77953,-13.4693l110.786 -846.232 -611.37 0z"/>
  <path class="fil5" d="M1208.01 953.333l-218.215 0c-8.11064,16.2248 -15.7193,31.441 -23.6055,47.2122 -0.312992,0.809056 -0.713386,1.57323 -1.18819,2.28425 -3.24922,5.67048 -8.40946,9.68505 -14.2559,11.6339 -5.80867,1.93583 -12.3165,1.81654 -18.3095,-0.764174 -0.818505,-0.287008 -1.59685,-0.660237 -2.32087,-1.11378 -14.7732,-10.0843 -40.754,-21.6638 -56.1201,-28.1067 -5.67284,-3.24922 -9.68859,-8.40827 -11.6362,-14.2559 -1.78583,-5.35276 -1.82244,-11.2984 0.201969,-16.8898l-186.782 0 84.5316 567.625c0.426378,2.86299 1.89685,11.1366 3.77953,13.4717 1.66654,1.75276 3.75709,2.90197 6.22205,2.90197l353.384 0c2.46614,0 4.5567,-1.15158 6.22323,-2.90433 1.88268,-2.33504 3.35315,-10.6063 3.77953,-13.4693l74.3115 -567.625z"/>
  <path class="fil6" d="M1425.3 559.591c11.9303,4.7315 25.4398,-1.10551 30.1713,-13.0358 4.73268,-11.9303 -1.10433,-25.4398 -13.0347,-30.1713l-116.107 -46.2567c-5.48268,-2.18386 -11.0232,-3.75709 -16.5827,-4.76339 -25.7681,-4.66536 -50.8134,2.95276 -71.7308,18.039 -19.5957,14.1319 -35.6658,35.0835 -44.9469,58.376 -3.1311,7.86024 -5.51339,16.0382 -7.02048,24.3614l-70.1103 387.193 47.2429 0 68.6256 -378.989c0.941339,-5.2004 2.45906,-10.3819 4.46929,-15.4299 6.05197,-15.189 16.3866,-28.7469 28.9028,-37.7729 11.1921,-8.07284 23.9693,-12.2646 36.3638,-10.0193 2.52047,0.455906 5.07638,1.18583 7.65119,2.21221l116.106 46.2567z"/>
  <path class="fil7" d="M761.796 1046l55.9099 -27.9555 -0.022441 -0.0448819c0.452363,-0.227953 0.914174,-0.421654 1.37953,-0.585827 6.11811,-2.63858 12.7665,-2.76614 18.6969,-0.790158 6.40749,2.13662 12.0047,6.70394 15.2457,13.1858l0.046063 -0.022441c0.165354,0.33189 0.314173,0.668504 0.447638,1.00866l27.965 55.9311 0.0448819 -0.022441c0.225591,0.45 0.418111,0.908268 0.582284,1.37008 2.64449,6.12166 2.77087,12.7725 0.793701,18.7063 -2.1378,6.4063 -6.70512,12.0036 -13.1835,15.2457l0.0212599 0.0448819c-0.330709,0.165354 -0.668504,0.315355 -1.00748,0.447638l-54.9213 27.4607c-0.762993,0.478347 -1.56732,0.861024 -2.39764,1.14921 -6.11103,2.62795 -12.7453,2.75079 -18.6685,0.777166 -5.95867,-1.98662 -11.2158,-6.07678 -14.5299,-11.8536 -0.499607,-0.741733 -0.905906,-1.52717 -1.2189,-2.33977l-27.45 -54.8977c-0.477166,-0.761812 -0.858662,-1.56732 -1.14803,-2.39646 -2.62914,-6.11103 -2.75197,-12.7465 -0.778347,-18.6697 1.98543,-5.95867 6.07678,-11.2181 11.8547,-14.5311 0.741733,-0.499607 1.52599,-0.904725 2.33858,-1.21772z"/>
  <path class="fil7" d="M927.198 882.422l55.9276 27.9626c6.48071,3.23977 11.0504,8.84056 13.187,15.248 2.12362,6.37087 1.82244,13.5697 -1.41969,20.054l-27.9532 55.9063c-0.318898,0.82441 -0.72756,1.60512 -1.21181,2.33032 -3.31299,5.78386 -8.57717,9.87757 -14.5406,11.8665 -5.9256,1.97362 -12.5634,1.85315 -18.6756,-0.780709 -0.83504,-0.291733 -1.62874,-0.672048 -2.36811,-1.13504l-55.9229 -27.9614 5.29961 -10.5992 -5.32205 10.6441c-0.453544,-0.226772 -0.884646,-0.478347 -1.29567,-0.752363 -5.78504,-3.31418 -9.88111,-8.57717 -11.8689,-14.5406 -2.1248,-6.37323 -1.82126,-13.5685 1.41851,-20.0504l-0.0448819 -0.022441c0.165354,-0.334252 0.346063,-0.654331 0.538583,-0.96378l27.9638 -55.9323 10.5992 5.29961 -10.6429 -5.32205c0.225591,-0.451181 0.475985,-0.881103 0.748819,-1.29095 3.31418,-5.79804 8.56182,-9.89528 14.4957,-11.8736l3.17008 9.47127 0.00236221 0.0011811 -3.17244 -9.51142c0.478347,-0.159449 0.961418,-0.287008 1.44331,-0.383859 6.013,-1.64173 12.6402,-1.16457 18.6543,1.84134l0.022441 -0.046063c0.334252,0.166536 0.656693,0.348425 0.967324,0.540945z"/>
  <path class="fil7" d="M1080.39 1059.94l37.5319 50.0433c4.36654,5.8193 5.95867,12.8587 5.00906,19.5071 -0.950788,6.65552 -4.45276,12.9732 -10.2709,17.3362l-50.9079 38.1803 0.0283465 0.0366142c-0.382677,0.288189 -0.777166,0.546851 -1.18228,0.78189 -5.58071,3.74174 -12.137,5.07756 -18.3508,4.18937 -6.65434,-0.949607 -12.9685,-4.4504 -17.3339,-10.2673l-0.0377953 0.0271654c-0.212599,-0.282284 -0.408662,-0.571654 -0.592914,-0.86693l-36.9213 -49.2272c-0.568111,-0.633071 -1.05709,-1.31102 -1.46575,-2.02205 -3.73111,-5.57835 -5.06103,-12.1217 -4.17402,-18.3272 0.88819,-6.22323 4.00748,-12.1476 9.16182,-16.4587 0.614174,-0.587008 1.27441,-1.09606 1.97126,-1.52599l49.2012 -36.9012c0.633071,-0.570473 1.31457,-1.06063 2.02795,-1.47165 5.57481,-3.72638 12.1181,-5.0563 18.3213,-4.16811 6.22323,0.889371 12.1476,4.0063 16.4587,9.163 0.588189,0.614174 1.09606,1.27559 1.52599,1.97126z"/>
  <path class="fil7" d="M946.029 1201.5l12.7417 70.0725c1.44921,7.97245 -0.484252,15.7996 -4.76693,21.9851 -4.29331,6.20197 -10.9665,10.7811 -18.9815,12.2374l-70.0737 12.7417c-7.97008,1.45039 -15.7984,-0.483071 -21.9839,-4.76575 -6.20197,-4.29331 -10.7811,-10.9677 -12.2386,-18.9827l-12.7406 -70.0737c-1.44921,-7.97127 0.484252,-15.7996 4.76693,-21.9839 4.29213,-6.20315 10.9654,-10.7811 18.9815,-12.2386l70.0725 -12.7417c7.97127,-1.44921 15.7984,0.483071 21.9839,4.76575 6.20315,4.29331 10.7823,10.9677 12.2386,18.9839z"/>
  <path class="fil7" d="M1074.26 1344.53l-18.8717 64.7115c-2.19803,7.5378 -7.23898,13.4658 -13.5839,16.9465 -6.35552,3.48425 -14.0551,4.55315 -21.5622,2.36339l-65.8134 -19.1953c-7.53426,-2.19567 -13.4646,-7.23544 -16.9441,-13.5827 -3.48544,-6.35552 -4.55433,-14.0551 -2.36457,-21.5634l19.1953 -65.8134c2.19567,-7.53426 7.23662,-13.4646 13.5827,-16.9453 6.35552,-3.48544 14.0551,-4.55433 21.5622,-2.36457l64.7587 18.8882c0.878741,0.173622 1.72559,0.437008 2.52756,0.779528 6.83741,2.39764 12.2232,7.18465 15.4725,13.1114 3.26929,5.96103 4.41024,13.1067 2.73425,20.1614 -0.148819,0.86693 -0.381496,1.70315 -0.693308,2.50276z"/>
  <path class="fil7" d="M920.9 1379.6l-19.1941 65.8134c-2.19803,7.5378 -7.23898,13.4658 -13.585,16.9453 -6.35315,3.48544 -14.0539,4.55315 -21.561,2.36457l-65.8146 -19.1953c-7.53426,-2.19685 -13.4646,-7.2378 -16.9441,-13.5827 -3.48544,-6.35434 -4.55197,-14.0563 -2.36457,-21.5634l19.1953 -65.8134 12.2693 3.55512 -1.16811 -0.340158 -11.1 -3.21733 0.00590552 -0.0188977 -0.046063 -0.0129921c0.141732,-0.486615 0.31063,-0.956694 0.501969,-1.41024 2.3941,-6.8504 7.18819,-12.2469 13.1209,-15.5008 6.35197,-3.48425 14.0528,-4.55315 21.5587,-2.36457l-3.55512 12.2693 0.355512 -1.2189 3.20197 -11.0492 0.0177165 0.00590552 0.0129921 -0.046063c0.35315,0.103937 0.696851,0.220866 1.03465,0.349607l64.7493 18.8847c7.53544,2.19921 13.4646,7.2378 16.9453,13.5839 3.48307,6.35315 4.55197,14.0551 2.36339,21.5622z"/>
  <polygon class="fil8" points="1213.78,673.916 1166.53,673.916 1115.94,953.333 1163.18,953.333 "/>
 </g>
</svg>
