<svg xmlns="http://www.w3.org/2000/svg" viewBox="0 0 512 512"><defs><style>.cls-1{fill:#7bb9ec;}.cls-2{fill:#313d74;}.cls-3{fill:#99112e;}.cls-4{fill:#81122f;}.cls-5{fill:#8ed685;}.cls-6{fill:#76c27d;}.cls-7{fill:#fff;}.cls-8{fill:#d2d3d4;}.cls-9{fill:#cacaca;}.cls-10{fill:#c2c4c4;}.cls-11{fill:#db3a46;}.cls-12{fill:#a52f3c;}.cls-13{fill:#9f313d;}.cls-14{fill:#8b2f3e;}.cls-15{fill:#f1ce34;}.cls-16{fill:#ccaf2f;}.cls-17{fill:#a32f3b;}.cls-18{fill:#d4d4d4;}</style></defs><title>Food</title><g id="BULINE"><circle class="cls-1" cx="256" cy="256" r="256"/></g><g id="Icons"><path class="cls-2" d="M458.45,412.69a256,256,0,0,1-404.89,0Z"/><rect class="cls-3" x="343.32" y="5" width="18.06" height="264.93" rx="8.47"/><path class="cls-4" d="M356.86,268.71a8.83,8.83,0,0,1-4.51,1.22,9,9,0,0,1-9-9V14a9,9,0,0,1,9-9,8.83,8.83,0,0,1,4.51,1.22A9,9,0,0,0,352.35,14V260.9A9,9,0,0,0,356.86,268.71Z"/><path class="cls-5" d="M449.12,180.44l-1.67,21.48-5.6,71.53L430.91,413.62c-.42,5.43-5.94,9.66-12.59,9.66H337.08c-6.66,0-12.18-4.23-12.6-9.66l-1.65-21.15-4.78-61.17L306.27,180.44Z"/><path class="cls-6" d="M370.48,423.28H336.81c-6.66,0-12.17-4.23-12.6-9.67L306,180.44h33.67l18.2,233.17C358.3,419.05,363.81,423.28,370.48,423.28Z"/><rect class="cls-7" x="294.05" y="160.84" width="166.03" height="19.6" rx="9.19"/><path class="cls-8" d="M336.39,177.57a9.77,9.77,0,0,0,6.93,2.87H303.85a9.8,9.8,0,0,1,0-19.6h39.47a9.8,9.8,0,0,0-6.93,16.73Z"/><path class="cls-2" d="M337.08,423.28h81.7a0,0,0,0,1,0,0v.49a7.43,7.43,0,0,1-7.43,7.43H344.51a7.43,7.43,0,0,1-7.43-7.43v-.49A0,0,0,0,1,337.08,423.28Z"/><polygon class="cls-7" points="447.45 201.92 441.85 273.45 322.83 392.47 318.05 331.3 447.45 201.92"/><polygon class="cls-8" points="353.8 361.5 322.83 392.47 318.05 331.3 349.04 300.33 353.8 361.5"/><path class="cls-7" d="M335,423.64H291.57a21.49,21.49,0,0,1-21.39-19.43l-3.6-37.44a3,3,0,0,1,3-3.26H357a3,3,0,0,1,3,3.26l-3.6,37.44A21.49,21.49,0,0,1,335,423.64Z"/><path class="cls-9" d="M317,423.64H291.58a21.49,21.49,0,0,1-21.4-19.44l-3.6-37.43a3,3,0,0,1,3-3.26H295a3,3,0,0,0-3,3.26l3.6,37.43A21.49,21.49,0,0,0,317,423.64Z"/><path class="cls-10" d="M290.09,423.64h46.39a0,0,0,0,1,0,0v0a7.56,7.56,0,0,1-7.56,7.56H297.65a7.56,7.56,0,0,1-7.56-7.56v0a0,0,0,0,1,0,0Z"/><path class="cls-11" d="M336.35,344.5h.13v-.81a13.36,13.36,0,0,0-13.2-13.35,20,20,0,0,0-3-18.46h0a2.31,2.31,0,0,0-3.24-.45l-6.87,5.17a19.91,19.91,0,0,0-7.84,13.76,13.35,13.35,0,0,0-12.85,13.33v.81a14.74,14.74,0,0,0-14.75,14.74v4.27h76.32v-4.27A14.74,14.74,0,0,0,336.35,344.5Z"/><path class="cls-12" d="M324.15,321.17a20,20,0,0,0-3.46,9.19,13.34,13.34,0,0,0-12.84,13.33v.81a14.74,14.74,0,0,0-14.75,14.74v4.27H274.77v-4.27a14.75,14.75,0,0,1,14.75-14.74v-.81a13.34,13.34,0,0,1,12.84-13.33,20,20,0,0,1,7.84-13.76l6.88-5.17a2.35,2.35,0,0,1,1.39-.47,2.32,2.32,0,0,1,1.85.92A19.94,19.94,0,0,1,324.15,321.17Z"/><path class="cls-13" d="M281.2,241.51l-2.73,38.8H62.62l-2.72-38.8c0-.6.06-1.21.12-1.81A101.15,101.15,0,0,1,161,145.38h19.18A101.15,101.15,0,0,1,281.07,239.7C281.13,240.3,281.17,240.91,281.2,241.51Z"/><path class="cls-14" d="M102.2,239.7c0,.6-.09,1.21-.12,1.81l2.73,38.8H62.74L60,241.51c0-.6.07-1.21.12-1.81a101.15,101.15,0,0,1,100.93-94.32h19.18a100.31,100.31,0,0,1,11.44.64A101.17,101.17,0,0,0,102.2,239.7Z"/><rect class="cls-15" x="155.02" y="129.6" width="31.09" height="165.15" rx="9.51" transform="translate(-1.21 0.98) rotate(-0.33)"/><path class="cls-16" d="M178.78,294.54a9.09,9.09,0,0,1-1.74.17l-12.07.07a9.5,9.5,0,0,1-9.56-9.45l-.84-146.13a9.51,9.51,0,0,1,9.46-9.56l12.07-.07a10,10,0,0,1,1.74.15,9.51,9.51,0,0,0-7.72,9.39L171,285.24A9.49,9.49,0,0,0,178.78,294.54Z"/><rect class="cls-15" x="185.62" y="145.41" width="31.09" height="165.15" rx="9.51" transform="translate(-1.3 1.15) rotate(-0.33)"/><path class="cls-16" d="M209.39,310.35a9.27,9.27,0,0,1-1.75.17l-12.07.07a9.5,9.5,0,0,1-9.56-9.45L185.18,155a9.5,9.5,0,0,1,9.45-9.56l12.07-.07a8.35,8.35,0,0,1,1.74.15,9.51,9.51,0,0,0-7.72,9.39l.84,146.13A9.51,9.51,0,0,0,209.39,310.35Z"/><rect class="cls-15" x="216.22" y="122.85" width="31.09" height="165.15" rx="9.51" transform="translate(-1.17 1.33) rotate(-0.33)"/><path class="cls-16" d="M240,287.79a10,10,0,0,1-1.74.18l-12.08.06a9.51,9.51,0,0,1-9.56-9.45l-.83-146.13a9.5,9.5,0,0,1,9.45-9.56l12.07-.07a10.17,10.17,0,0,1,1.75.15,9.49,9.49,0,0,0-7.72,9.39l.83,146.13A9.51,9.51,0,0,0,240,287.79Z"/><rect class="cls-15" x="93.68" y="110.13" width="31.09" height="165.15" rx="9.51" transform="translate(-1.1 0.63) rotate(-0.33)"/><path class="cls-16" d="M117.45,275.07a9.09,9.09,0,0,1-1.74.17l-12.07.07a9.5,9.5,0,0,1-9.56-9.45l-.84-146.13a9.5,9.5,0,0,1,9.45-9.56l12.07-.07a8.5,8.5,0,0,1,1.75.15,9.5,9.5,0,0,0-7.72,9.39l.83,146.13A9.51,9.51,0,0,0,117.45,275.07Z"/><rect class="cls-15" x="124.28" y="145.41" width="31.09" height="165.15" rx="9.51" transform="translate(-1.3 0.8) rotate(-0.33)"/><path class="cls-16" d="M148.05,310.35a9.09,9.09,0,0,1-1.74.17l-12.07.07a9.5,9.5,0,0,1-9.56-9.45L123.84,155a9.5,9.5,0,0,1,9.45-9.56l12.07-.07a8.44,8.44,0,0,1,1.75.15,9.5,9.5,0,0,0-7.72,9.39l.84,146.13A9.49,9.49,0,0,0,148.05,310.35Z"/><rect class="cls-15" x="72.11" y="150.03" width="31.09" height="165.15" rx="9.51" transform="translate(-57.94 31.14) rotate(-15.21)"/><path class="cls-16" d="M116.76,310.1a10.19,10.19,0,0,1-1.65.62l-11.64,3.16A9.5,9.5,0,0,1,91.8,307.2l-38.33-141a9.49,9.49,0,0,1,6.68-11.66l11.65-3.17a8.62,8.62,0,0,1,1.72-.3,9.5,9.5,0,0,0-5,11l38.33,141A9.5,9.5,0,0,0,116.76,310.1Z"/><rect class="cls-15" x="241.47" y="150.03" width="31.09" height="165.15" rx="9.51" transform="translate(444.02 524.49) rotate(-164.79)"/><path class="cls-16" d="M227.92,310.1a9.74,9.74,0,0,0,1.64.62l11.65,3.16a9.49,9.49,0,0,0,11.66-6.68l38.33-141a9.49,9.49,0,0,0-6.68-11.66l-11.64-3.17a8.71,8.71,0,0,0-1.73-.3,9.5,9.5,0,0,1,5.05,11l-38.33,141A9.5,9.5,0,0,1,227.92,310.1Z"/><path class="cls-11" d="M281.32,239.7l-.12,1.81-2.73,38.8-2.28,32.54L273,358.05l-2.86,40.67a34.91,34.91,0,0,1-34.83,32.48H105.76a34.93,34.93,0,0,1-34.84-32.48l-2.85-40.67-3.16-45.2-2.29-32.54-2.72-38.8-.12-1.81h60.5a12.83,12.83,0,0,1,12.83,12.83V258a17,17,0,0,0,17,17H191a17,17,0,0,0,17-17v-5.43A12.83,12.83,0,0,1,220.8,239.7Z"/><path class="cls-11" d="M102,239.7h.24c0,.6-.09,1.21-.12,1.81Z"/><path class="cls-17" d="M148,431.2H105.88A34.93,34.93,0,0,1,71,398.72l-2.85-40.67L65,312.85l-2.29-32.54L60,241.51l-.12-1.81h42.3c0,.6-.09,1.21-.12,1.81l2.73,38.8,2.28,32.54,3.17,45.2,2.85,40.67A34.93,34.93,0,0,0,148,431.2Z"/><path class="cls-7" d="M276.19,312.85,273,358.05H198.19a35.7,35.7,0,0,1-55.29,0H68.07l-3.16-45.2h78a35.7,35.7,0,0,1,55.29,0Z"/><polygon class="cls-18" points="110.26 358.06 68.19 358.06 65.03 312.85 107.09 312.85 110.26 358.06"/><rect class="cls-7" x="103.92" y="159.25" width="10.57" height="11.68" rx="2.8"/><rect class="cls-7" x="77.09" y="205.43" width="10.57" height="11.68" rx="2.8"/><rect class="cls-7" x="197.28" y="170.51" width="10.57" height="11.68" rx="2.8" transform="translate(52.7 -46.52) rotate(15.04)"/><rect class="cls-7" x="131.99" y="212.18" width="10.57" height="11.68" rx="2.8"/><rect class="cls-7" x="168.21" y="147.58" width="10.57" height="11.68" rx="3.36"/><rect class="cls-7" x="226.48" y="191.36" width="10.57" height="11.68" rx="3.36"/><rect class="cls-7" x="268.61" y="174.17" width="10.57" height="11.68" rx="3.36"/><rect class="cls-7" x="166.68" y="235.67" width="10.57" height="11.68" rx="2.8"/><rect class="cls-7" x="165.26" y="193.75" width="10.57" height="11.68" rx="2.8" transform="translate(-91.94 204.26) rotate(-50.5)"/><rect class="cls-7" x="197.28" y="218.01" width="10.57" height="11.68" rx="2.8" transform="translate(-99.01 237.8) rotate(-50.5)"/><rect class="cls-7" x="254.44" y="220.14" width="10.57" height="11.68" rx="2.8" transform="translate(-79.85 282.68) rotate(-50.5)"/><rect class="cls-7" x="226.48" y="138.52" width="10.57" height="11.68" rx="2.8" transform="translate(-27.04 231.39) rotate(-50.5)"/><rect class="cls-7" x="109.21" y="121.31" width="10.57" height="11.68" rx="2.8" transform="translate(-53.34 93.86) rotate(-36.78)"/><rect class="cls-7" x="63.64" y="165.09" width="10.57" height="11.68" rx="2.8" transform="translate(-88.62 75.29) rotate(-36.78)"/><rect class="cls-7" x="137.27" y="163.79" width="10.57" height="11.68" rx="2.8" transform="translate(-73.19 119.12) rotate(-36.78)"/><rect class="cls-15" x="226.21" y="326.28" width="33.09" height="175.81" rx="10.12" transform="matrix(-0.01, -1, 1, -0.01, -170.03, 659.31)"/><path class="cls-16" d="M330.44,405.43a10.38,10.38,0,0,1,.19,1.86l.07,12.85a10.12,10.12,0,0,1-10.06,10.17l-155.57.89a10.13,10.13,0,0,1-10.18-10.06l-.07-12.85a10.38,10.38,0,0,1,.16-1.86,10.12,10.12,0,0,0,10,8.22l155.56-.89A10.11,10.11,0,0,0,330.44,405.43Z"/><rect class="cls-7" x="174.58" y="404.84" width="11.25" height="12.43" rx="3.58" transform="translate(-230.85 591.26) rotate(-90)"/><rect class="cls-7" x="268.36" y="406.48" width="11.25" height="12.43" rx="2.98" transform="translate(-138.7 686.68) rotate(-90)"/><rect class="cls-7" x="223.73" y="407.99" width="11.25" height="12.43" rx="2.98" transform="translate(142.92 879.7) rotate(-140.5)"/></g></svg>