<svg width="96" height="97" viewBox="0 0 96 97" fill="none" xmlns="http://www.w3.org/2000/svg">
<path fill-rule="evenodd" clip-rule="evenodd" d="M67.7618 18.604C66.7041 18.2862 65.5887 18.8861 65.2705 19.9441C59.2442 39.9757 60.1265 56.0121 60.7754 67.8082C60.9369 70.7425 61.0839 73.4144 61.1065 75.8202C61.1169 76.9248 62.0207 77.8114 63.1251 77.8005C64.2296 77.7897 65.1165 76.8854 65.1061 75.7808C65.0817 73.1893 64.9292 70.3844 64.7645 67.3543C64.124 55.5706 63.2985 40.3815 69.1006 21.0951C69.4188 20.0372 68.8194 18.9219 67.7618 18.604Z" fill="#CC8905"/>
<path fill-rule="evenodd" clip-rule="evenodd" d="M54.0263 19.2015C55.1246 19.085 56.1098 19.881 56.2267 20.9795C58.6543 43.7757 59.2921 58.2598 59.7635 68.9669C59.9038 72.1533 60.0294 75.0053 60.183 77.6422C60.2472 78.745 59.4055 79.6907 58.3028 79.7545C57.2002 79.8183 56.2543 78.976 56.19 77.8732C56.0335 75.1867 55.9064 72.3015 55.765 69.0905C55.2934 58.3854 54.6623 44.0589 52.2495 21.4014C52.1325 20.303 52.928 19.318 54.0263 19.2015Z" fill="#CC8905"/>
<path fill-rule="evenodd" clip-rule="evenodd" d="M44.5964 18.1519C45.6947 18.0354 46.6798 18.8315 46.7968 19.9299C49.2244 42.7261 49.8621 57.2103 50.3336 67.9173C50.4739 71.1038 50.5994 73.9557 50.7531 76.5926C50.8173 77.6954 49.9755 78.6411 48.8729 78.7049C47.7703 78.7687 46.8243 77.9264 46.7601 76.8236C46.6036 74.1371 46.4765 71.2519 46.335 68.0409C45.8635 57.3358 45.2324 43.0093 42.8196 20.3519C42.7026 19.2534 43.4981 18.2685 44.5964 18.1519Z" fill="#CC8905"/>
<path fill-rule="evenodd" clip-rule="evenodd" d="M54.2072 18.1519C53.1089 18.0354 52.1238 18.8315 52.0068 19.9299C49.5792 42.7261 48.9415 57.2103 48.47 67.9173C48.3297 71.1038 48.2042 73.9557 48.0505 76.5926C47.9863 77.6954 48.828 78.6411 49.9307 78.7049C51.0333 78.7687 51.9792 77.9264 52.0435 76.8236C52.2 74.1371 52.3271 71.2519 52.4686 68.0409C52.9401 57.3358 53.5712 43.0093 55.984 20.3519C56.101 19.2534 55.3055 18.2685 54.2072 18.1519Z" fill="#CC8905"/>
<path fill-rule="evenodd" clip-rule="evenodd" d="M36.3357 18.604C37.3934 18.2862 38.5088 18.8861 38.8271 19.9441C44.8534 39.9757 43.9711 56.0121 43.3221 67.8082C43.1607 70.7425 43.0137 73.4144 42.991 75.8202C42.9806 76.9248 42.0769 77.8114 40.9724 77.8005C39.868 77.7897 38.981 76.8854 38.9914 75.7808C39.0158 73.1893 39.1683 70.3844 39.333 67.3543C39.9735 55.5706 40.7991 40.3815 34.997 21.0951C34.6787 20.0372 35.2781 18.9219 36.3357 18.604Z" fill="#CC8905"/>
<path fill-rule="evenodd" clip-rule="evenodd" d="M28.3517 15.0061C29.4486 14.8765 30.4431 15.6607 30.573 16.7577C32.3736 31.9592 34.5609 46.7752 36.4482 59.5593C37.443 66.2974 38.3544 72.471 39.0819 77.8391C39.2303 78.9338 38.4633 79.9412 37.3687 80.0892C36.2742 80.2372 35.2666 79.4699 35.1183 78.3752C34.4025 73.0939 33.4978 66.9648 32.507 60.2517C30.6141 47.4276 28.4067 32.4728 26.6009 17.227C26.471 16.13 27.2548 15.1357 28.3517 15.0061Z" fill="#EEAD07"/>
<path fill-rule="evenodd" clip-rule="evenodd" d="M78.8717 23.6817C77.9294 23.1057 76.6984 23.4027 76.1221 24.3452C63.0041 45.7975 62.1393 64.1822 63.3481 77.9727C63.4446 79.073 64.4147 79.8866 65.515 79.7898C66.6154 79.693 67.4292 78.7225 67.3327 77.6222C66.1759 64.4247 66.9819 46.9588 79.5343 26.4313C80.1106 25.4888 79.814 24.2578 78.8717 23.6817Z" fill="#EEAD07"/>
<path fill-rule="evenodd" clip-rule="evenodd" d="M64.581 15.8493C63.5262 15.5221 62.4055 16.112 62.0779 17.1671C55.8735 37.144 56.613 53.1877 57.157 64.9892C57.2923 67.9248 57.4155 70.5979 57.4167 73.0038C57.4173 74.1084 58.3131 75.0031 59.4177 75.002C60.5222 75.001 61.4171 74.1047 61.4165 73.0001C61.4152 70.4085 61.2877 67.6023 61.15 64.5709C60.6144 52.7819 59.924 37.586 65.8976 18.3522C66.2253 17.2972 65.6358 16.1766 64.581 15.8493Z" fill="#E29705"/>
<path fill-rule="evenodd" clip-rule="evenodd" d="M72.4764 20.7265C71.4576 20.2999 70.2858 20.7799 69.859 21.7988C61.7782 41.0908 60.9844 57.1319 60.4006 68.9314C60.2554 71.8666 60.1231 74.5393 59.895 76.9343C59.7902 78.0339 60.5966 79.0101 61.6962 79.1147C62.7958 79.2194 63.7721 78.4128 63.8769 77.3132C64.1227 74.7333 64.2634 71.9278 64.4154 68.8971C65.0063 57.1107 65.7681 41.9182 73.5484 23.3438C73.9752 22.325 73.4952 21.1532 72.4764 20.7265Z" fill="#E29705"/>
<path fill-rule="evenodd" clip-rule="evenodd" d="M38.9381 18.634C39.9782 18.2626 41.1227 18.8049 41.4943 19.8452C48.5315 39.5433 48.4659 55.6039 48.4176 67.4178C48.4056 70.3565 48.3947 73.0325 48.4944 75.4363C48.5402 76.5399 47.6827 77.4715 46.5791 77.517C45.4755 77.5625 44.5438 76.7046 44.498 75.601C44.3905 73.0116 44.4002 70.2026 44.4105 67.168C44.451 55.3669 44.5031 40.1554 37.7277 21.19C37.356 20.1497 37.8979 19.0053 38.9381 18.634Z" fill="#E29705"/>
<path fill-rule="evenodd" clip-rule="evenodd" d="M25.5028 21.8771C26.543 21.5058 27.6875 22.048 28.0591 23.0883C35.0963 42.7864 35.0307 58.8471 34.9824 70.661C34.9704 73.5997 34.9595 76.2757 35.0592 78.6795C35.105 79.7831 34.2475 80.7147 33.1439 80.7602C32.0403 80.8056 31.1085 79.9478 31.0627 78.8441C30.9553 76.2548 30.9649 73.4457 30.9753 70.4112C31.0157 58.61 31.0678 43.3985 24.2924 24.4332C23.9208 23.3929 24.4627 22.2485 25.5028 21.8771Z" fill="#E29705"/>
<path fill-rule="evenodd" clip-rule="evenodd" d="M32.7733 21.4357C33.8134 21.0644 34.9579 21.6066 35.3296 22.6469C42.3667 42.345 42.3011 58.4057 42.2528 70.2196C42.2408 73.1583 42.2299 75.8342 42.3296 78.238C42.3754 79.3417 41.5179 80.2733 40.4143 80.3187C39.3107 80.3642 38.379 79.5064 38.3332 78.4027C38.2257 75.8134 38.2354 73.0043 38.2458 69.9698C38.2862 58.1686 38.3383 42.9571 31.5629 23.9918C31.1912 22.9515 31.7331 21.8071 32.7733 21.4357Z" fill="#E29705"/>
<path fill-rule="evenodd" clip-rule="evenodd" d="M18.7684 23.6817C19.7106 23.1057 20.9417 23.4027 21.518 24.3452C34.6272 45.7832 35.287 61.7995 34.0764 75.6113C33.9799 76.7117 33.0097 77.5252 31.9094 77.4284C30.8091 77.3316 29.9953 76.3612 30.0917 75.2608C31.2467 62.0847 30.667 46.9731 18.1058 26.4313C17.5295 25.4888 17.8261 24.2578 18.7684 23.6817Z" fill="#EEAD07"/>
<path fill-rule="evenodd" clip-rule="evenodd" d="M44.9929 15.8463C46.0494 15.5247 47.167 16.1206 47.489 17.1774C51.3075 29.707 52.4494 41.3666 52.8261 51.7971C52.9768 55.9703 53.0052 59.9658 53.032 63.7263C53.0387 64.6549 53.0452 65.5692 53.0534 66.4683C53.0952 71.0313 53.181 75.1993 53.5354 78.9911C53.6381 80.091 52.83 81.0656 51.7303 81.1679C50.6305 81.2702 49.6557 80.4616 49.553 79.3617C49.1814 75.3857 49.0956 71.0681 49.0538 66.5032C49.0454 65.5883 49.0388 64.6632 49.0322 63.7278C49.0053 59.9723 48.9773 56.0492 48.8289 51.9397C48.459 41.6966 47.3426 30.4158 43.6631 18.3422C43.341 17.2854 43.9364 16.168 44.9929 15.8463Z" fill="#EEAD07"/>
<path fill-rule="evenodd" clip-rule="evenodd" d="M60.2635 16.6767C59.2628 16.209 58.0724 16.6411 57.6048 17.6417C52.0599 29.5065 49.2874 40.8882 47.4455 51.1611C46.7086 55.2713 46.1177 59.2229 45.5616 62.9419C45.4242 63.8603 45.289 64.7646 45.1542 65.6535C44.4703 70.1649 43.7983 74.2791 42.9135 77.983C42.6568 79.0573 43.3197 80.1363 44.394 80.393C45.4684 80.6497 46.5473 79.9868 46.804 78.9125C47.7318 75.0287 48.4248 70.7665 49.109 66.2531C49.2462 65.3486 49.383 64.4337 49.5214 63.5086C50.0768 59.7944 50.6571 55.9144 51.3827 51.8671C53.1915 41.7786 55.8855 30.7684 61.2286 19.3353C61.6962 18.3347 61.2641 17.1443 60.2635 16.6767Z" fill="#EEAD07"/>
<path fill-rule="evenodd" clip-rule="evenodd" d="M28.8866 16.0143C29.9528 15.7254 31.0511 16.3554 31.3399 17.4215C37.4543 39.9996 41.4576 56.3222 41.4576 77.0757C41.4576 78.1803 40.5621 79.0758 39.4576 79.076C38.353 79.0762 37.4576 78.1809 37.4576 77.0764C37.4576 56.8995 33.5876 41.0245 27.479 18.4678C27.1902 17.4016 27.8205 16.3032 28.8866 16.0143Z" fill="#EEAD07"/>
<path fill-rule="evenodd" clip-rule="evenodd" d="M15.9242 19.1054C16.7134 18.3326 17.9797 18.346 18.7525 19.1352C32.5725 33.2494 40.2535 57.6619 41.9748 78.7499C42.0647 79.8508 41.2451 80.8161 40.1442 80.906C39.0433 80.9958 38.078 80.1762 37.9881 79.0753C36.3042 58.4459 28.7925 35.1063 15.8944 21.9337C15.1216 21.1444 15.135 19.8782 15.9242 19.1054Z" fill="#F6C92A"/>
<path fill-rule="evenodd" clip-rule="evenodd" d="M80.8031 19.1054C80.0139 18.3326 78.7476 18.346 77.9748 19.1352C64.1548 33.2494 56.4738 57.6619 54.7525 78.7499C54.6626 79.8508 55.4822 80.8161 56.5831 80.906C57.684 80.9958 58.6493 80.1762 58.7392 79.0753C60.4231 58.4459 67.9348 35.1063 80.8329 21.9337C81.6057 21.1444 81.5923 19.8782 80.8031 19.1054Z" fill="#F6C92A"/>
<path fill-rule="evenodd" clip-rule="evenodd" d="M67.2578 17.3844C66.3995 16.6895 65.1401 16.8223 64.445 17.6809C52.014 33.0366 46.6634 58.0653 46.9333 79.222C46.9474 80.3265 47.8541 81.2102 48.9586 81.1958C50.063 81.1814 50.9469 80.2743 50.9328 79.1698C50.6688 58.4732 55.9518 34.5286 67.5535 20.1974C68.2486 19.3387 68.1162 18.0793 67.2578 17.3844Z" fill="#F6C92A"/>
<path fill-rule="evenodd" clip-rule="evenodd" d="M29.122 15.2462C29.9804 14.5514 31.2398 14.6841 31.9349 15.5428C44.3659 30.8984 49.7165 55.9272 49.4466 77.0838C49.4325 78.1883 48.5258 79.072 47.4213 79.0576C46.3169 79.0432 45.433 78.1361 45.4471 77.0316C45.711 56.335 40.4281 32.3904 28.8264 18.0592C28.1313 17.2005 28.2637 15.9411 29.122 15.2462Z" fill="#F6C92A"/>
<path fill-rule="evenodd" clip-rule="evenodd" d="M50.1854 19.9932C51.2813 20.1313 52.0577 21.1316 51.9196 22.2275C50.7814 31.2604 48.5856 51.65 48.7916 61.5544C48.8146 62.6587 47.9379 63.5726 46.8336 63.5955C45.7293 63.6185 44.8154 62.7419 44.7925 61.6376C44.5793 51.3916 46.819 30.711 47.951 21.7275C48.0891 20.6316 49.0895 19.8551 50.1854 19.9932Z" fill="#F5C92A"/>
<path fill-rule="evenodd" clip-rule="evenodd" d="M26.7902 21.3074C27.595 21.1107 28.4068 21.6037 28.6034 22.4085C30.1337 28.6709 33.5961 43.8555 35.1783 54.4208C35.301 55.2401 34.7363 56.0037 33.917 56.1264C33.0977 56.2491 32.3341 55.6844 32.2114 54.8651C30.6503 44.4405 27.2149 29.3646 25.6892 23.1206C25.4925 22.3158 25.9855 21.504 26.7902 21.3074Z" fill="#F5C92A"/>
<path fill-rule="evenodd" clip-rule="evenodd" d="M59.0963 18.0134C60.1987 18.0819 61.037 19.0311 60.9685 20.1335C60.6825 24.7397 60.0628 32.0113 59.1304 38.884C58.6643 42.3195 58.1166 45.6815 57.4874 48.5732C56.8687 51.4163 56.1369 53.9736 55.2482 55.6926C54.7409 56.6738 53.5342 57.058 52.553 56.5507C51.5718 56.0434 51.1877 54.8368 51.6949 53.8556C52.3254 52.6361 52.9699 50.5209 53.5789 47.7227C54.1772 44.9731 54.7084 41.7249 55.1667 38.3463C56.0832 31.591 56.6947 24.4189 56.9762 19.8856C57.0446 18.7832 57.9939 17.945 59.0963 18.0134Z" fill="#F5C92A"/>
<path fill-rule="evenodd" clip-rule="evenodd" d="M76.5245 32.4507C76.8263 33.2221 76.4456 34.0923 75.6741 34.3941C72.9878 35.4452 68.7549 37.5608 64.8935 40.4494C60.9964 43.3648 57.6939 46.907 56.524 50.7507C56.2827 51.5432 55.4447 51.9901 54.6522 51.7489C53.8597 51.5077 53.4127 50.6697 53.654 49.8771C55.1035 45.115 59.0262 41.0921 63.0965 38.0472C67.2026 34.9755 71.6793 32.7357 74.581 31.6003C75.3525 31.2985 76.2226 31.6792 76.5245 32.4507Z" fill="#F5C92A"/>
<path d="M21.75 48.301L27.75 78.676C28.625 83.176 29.9709 85.5639 32.875 87.676C35.7791 89.788 39.3125 89.676 48.875 89.676C57 89.676 60.3384 90.1505 64.875 87.676C69 85.426 70.4583 80.9676 70.8125 78.676L76.6875 48.301C76.8125 47.3426 75.9875 45.151 71.6875 44.051C67.3875 42.9509 66.4792 44.5093 65.5625 45.426C62.75 50.676 60.5 56.926 48.875 56.926C37.25 56.926 35.5 49.551 32.875 45.426C31.75 44.8635 30.5125 43.9135 26.5625 44.6135C22.6125 45.3135 21.7083 47.3635 21.75 48.301Z" fill="#E94F1F"/>
<path fill-rule="evenodd" clip-rule="evenodd" d="M19.7879 48.6885C19.7684 48.59 19.7564 48.4901 19.752 48.3898C19.6498 46.091 21.6753 43.4484 26.2135 42.6441C28.3755 42.261 29.9566 42.3007 31.2328 42.5986C32.2763 42.8422 33.0757 43.269 33.541 43.5173C33.6294 43.5645 33.7058 43.6053 33.7694 43.6371C34.0936 43.7992 34.3677 44.0464 34.5623 44.3522C35.0158 45.0649 35.4814 45.9326 35.9255 46.7606C36.1546 47.1875 36.3779 47.6039 36.591 47.9829C37.2737 49.1971 38.0092 50.3449 38.957 51.3527C40.7622 53.2723 43.5601 54.9259 48.875 54.9259C54.2897 54.9259 57.2325 53.4881 59.1557 51.6855C60.8787 50.0706 61.9138 48.0854 63.0887 45.8322C63.3183 45.3919 63.5531 44.9415 63.7995 44.4815C63.8921 44.3087 64.0096 44.1504 64.1483 44.0118C64.1812 43.9788 64.2254 43.9304 64.2807 43.8699C64.6294 43.4877 65.418 42.6236 66.5864 42.1363C68.0168 41.5397 69.8041 41.5047 72.1832 42.1133C76.9439 43.3312 78.9857 46.1449 78.6707 48.5596C78.6654 48.6002 78.6589 48.6406 78.6511 48.6808L72.783 79.0203C72.3784 81.5832 70.7343 86.7581 65.8327 89.4317C61.487 91.8021 57.9267 91.7629 52.128 91.699C51.1171 91.6878 50.0381 91.6759 48.875 91.6759C48.3942 91.6759 47.927 91.6763 47.473 91.6766C43.4717 91.6793 40.4892 91.6813 38.1857 91.4587C35.5414 91.2031 33.5425 90.6344 31.6987 89.2934C30.0587 88.1007 28.7859 86.7721 27.8127 85.0595C26.8558 83.3754 26.2465 81.4209 25.7874 79.0609C25.7872 79.0598 25.787 79.0588 25.7868 79.0577L19.7879 48.6885ZM27.75 78.676L21.75 48.301C21.7083 47.3635 22.6125 45.3135 26.5625 44.6135C30.1325 43.9808 31.4868 44.6959 32.5449 45.2547C32.6575 45.3141 32.7668 45.3718 32.875 45.426C33.2926 46.0822 33.6881 46.8207 34.1047 47.5987C36.3067 51.7109 39.0994 56.9259 48.875 56.9259C59.5821 56.9259 62.3363 51.6239 64.9019 46.6846C65.1219 46.2612 65.3404 45.8405 65.5625 45.426C65.6486 45.3399 65.7346 45.2481 65.8234 45.1534C66.6797 44.24 67.7914 43.0542 71.6875 44.0509C75.9875 45.151 76.8125 47.3426 76.6875 48.301L70.8125 78.676C70.4583 80.9676 69 85.4259 64.875 87.6759C61.0165 89.7806 58.0249 89.7519 52.2179 89.6963C51.1972 89.6866 50.0896 89.6759 48.875 89.6759C48.4022 89.6759 47.9441 89.6762 47.5001 89.6765C38.9646 89.6816 35.6355 89.6836 32.875 87.6759C29.9709 85.5639 28.625 83.1759 27.75 78.676Z" fill="#C73609"/>
<path d="M30.5341 83.2381C33.7287 80.92 35.1127 74.4975 33.6397 67.4952C32.1668 60.4929 28.3125 55.1723 24.4547 54.3377C23.3751 54.1041 22.6541 55.197 22.8815 56.2779L28.3125 82.0962C28.5399 83.1771 29.6401 83.8868 30.5341 83.2381Z" fill="#C8380B"/>
<path d="M68.3643 81.3897C65.1652 79.0412 63.7831 72.4396 65.264 65.2069C66.7449 57.9742 70.6102 52.447 74.4749 51.5448C75.5506 51.2937 76.2791 52.3822 76.0575 53.4643L70.5739 80.2467C70.3524 81.3288 69.2547 82.0434 68.3643 81.3897Z" fill="#AD2F07"/>
<path d="M30.858 54.4404C32.3281 55.4544 33.9293 55.7079 34.6301 54.6054C35.9557 52.5203 33.9517 50.5906 32.2162 47.3144C30.383 43.8537 26.3184 44.8566 25.5472 46.0698C25.1216 46.7392 24.5117 47.329 25.6233 49.2764C26.735 51.2237 29.0204 53.1729 30.858 54.4404Z" fill="#FF6C3D"/>
<path fill-rule="evenodd" clip-rule="evenodd" d="M27.3729 45.8954C29.1596 45.8358 30.7519 46.5359 31.7232 47.9119C32.0417 48.3631 31.9341 48.987 31.4829 49.3055C31.0317 49.624 30.4078 49.5164 30.0893 49.0652C29.5606 48.3163 28.6529 47.8538 27.4396 47.8942C26.8876 47.9126 26.4252 47.4801 26.4068 46.9281C26.3884 46.3761 26.821 45.9138 27.3729 45.8954Z" fill="#FEC4B1"/>
<path d="M50.7687 86.6987C50.8398 87.4894 50.2059 88.1926 49.3527 88.2694C48.4996 88.3461 47.7503 87.7674 47.6792 86.9766C47.608 86.1859 48.242 85.4827 49.0951 85.4059C49.9483 85.3292 50.6975 85.908 50.7687 86.6987Z" fill="#CD3C0E"/>
<path d="M58.3961 79.9592C58.4672 80.7499 57.8333 81.4531 56.9801 81.5299C56.127 81.6066 55.3777 81.0279 55.3065 80.2371C55.2354 79.4464 55.8693 78.7432 56.7225 78.6664C57.5756 78.5897 58.3249 79.1685 58.3961 79.9592Z" fill="#CD3C0E"/>
<path d="M65.6939 83.5C65.765 84.2907 65.1311 84.9939 64.278 85.0706C63.4248 85.1474 62.6755 84.5686 62.6044 83.7779C62.5333 82.9872 63.1672 82.284 64.0203 82.2072C64.8735 82.1305 65.6228 82.7092 65.6939 83.5Z" fill="#CD3C0E"/>
<path d="M69.4695 77.905C69.5406 78.6957 68.9067 79.3989 68.0535 79.4757C67.2004 79.5524 66.4511 78.9737 66.38 78.1829C66.3088 77.3922 66.9428 76.689 67.7959 76.6122C68.6491 76.5355 69.3983 77.1143 69.4695 77.905Z" fill="#CD3C0E"/>
<path d="M55.197 83.3913C55.2871 84.3931 54.5153 85.2812 53.4731 85.375C52.4309 85.4687 51.5129 84.7326 51.4228 83.7309C51.3326 82.7291 52.1045 81.841 53.1467 81.7472C54.1889 81.6534 55.1069 82.3895 55.197 83.3913Z" fill="#CD3C0E"/>
<path d="M61.535 83.3913C61.6251 84.3931 60.8533 85.2812 59.811 85.375C58.7688 85.4687 57.8509 84.7326 57.7607 83.7309C57.6706 82.7291 58.4424 81.841 59.4847 81.7472C60.5269 81.6534 61.4448 82.3895 61.535 83.3913Z" fill="#CD3C0E"/>
<path d="M63.4804 78.0749C63.5705 79.0767 62.7987 79.9648 61.7565 80.0585C60.7142 80.1523 59.7963 79.4162 59.7062 78.4145C59.616 77.4127 60.3879 76.5246 61.4301 76.4308C62.4723 76.337 63.3903 77.0731 63.4804 78.0749Z" fill="#CD3C0E"/>
<path d="M57.3563 87.085C57.4076 87.6556 56.9501 88.1631 56.3345 88.2185C55.7188 88.2739 55.1781 87.8562 55.1268 87.2856C55.0754 86.715 55.5329 86.2075 56.1486 86.1521C56.7642 86.0968 57.3049 86.5144 57.3563 87.085Z" fill="#CD3C0E"/>
<path d="M54.3725 79.5335C54.414 79.9947 54.0443 80.4049 53.5467 80.4496C53.0491 80.4944 52.612 80.1568 52.5706 79.6956C52.5291 79.2345 52.8988 78.8243 53.3964 78.7795C53.894 78.7348 54.331 79.0723 54.3725 79.5335Z" fill="#CD3C0E"/>
<path d="M46.4602 87.3216C46.5016 87.7828 46.1319 88.193 45.6343 88.2377C45.1367 88.2825 44.6997 87.9449 44.6582 87.4837C44.6167 87.0225 44.9865 86.6124 45.484 86.5676C45.9816 86.5229 46.4187 86.8604 46.4602 87.3216Z" fill="#CD3C0E"/>
<path d="M50.0104 83.4801C50.0519 83.9412 49.6822 84.3514 49.1846 84.3962C48.687 84.4409 48.25 84.1034 48.2085 83.6422C48.167 83.181 48.5367 82.7708 49.0343 82.7261C49.5319 82.6813 49.969 83.0189 50.0104 83.4801Z" fill="#CD3C0E"/>
<path d="M65.6802 79.9421C65.7089 80.2608 65.4534 80.5442 65.1095 80.5752C64.7657 80.6061 64.4636 80.3728 64.435 80.0541C64.4063 79.7354 64.6618 79.452 65.0057 79.421C65.3496 79.3901 65.6516 79.6234 65.6802 79.9421Z" fill="#CD3C0E"/>
<path d="M69.1642 74.5112C69.1929 74.8299 68.9373 75.1133 68.5935 75.1443C68.2496 75.1752 67.9476 74.9419 67.9189 74.6232C67.8902 74.3045 68.1458 74.0211 68.4896 73.9901C68.8335 73.9592 69.1355 74.1925 69.1642 74.5112Z" fill="#CD3C0E"/>
<path d="M65.4398 76.0097C65.4684 76.3284 65.2129 76.6119 64.869 76.6428C64.5252 76.6737 64.2232 76.4405 64.1945 76.1217C64.1658 75.803 64.4213 75.5196 64.7652 75.4887C65.1091 75.4577 65.4111 75.691 65.4398 76.0097Z" fill="#CD3C0E"/>
<path d="M60.2122 75.0996C60.2408 75.4183 59.9853 75.7017 59.6414 75.7326C59.2976 75.7636 58.9956 75.5303 58.9669 75.2116C58.9382 74.8929 59.1937 74.6094 59.5376 74.5785C59.8815 74.5476 60.1835 74.7809 60.2122 75.0996Z" fill="#CD3C0E"/>
<path d="M58.6132 77.2058C58.6418 77.5245 58.3863 77.8079 58.0424 77.8388C57.6986 77.8698 57.3966 77.6365 57.3679 77.3178C57.3392 76.9991 57.5947 76.7156 57.9386 76.6847C58.2825 76.6538 58.5845 76.8871 58.6132 77.2058Z" fill="#CD3C0E"/>
<path d="M66.9255 73.9138C66.9542 74.2325 66.6987 74.5159 66.3548 74.5469C66.011 74.5778 65.7089 74.3445 65.6803 74.0258C65.6516 73.7071 65.9071 73.4237 66.251 73.3927C66.5949 73.3618 66.8969 73.5951 66.9255 73.9138Z" fill="#CD3C0E"/>
<path d="M69.4411 70.6127C69.4698 70.9314 69.2143 71.2149 68.8704 71.2458C68.5265 71.2768 68.2245 71.0435 68.1958 70.7248C68.1672 70.4061 68.4227 70.1226 68.7666 70.0917C69.1104 70.0608 69.4124 70.294 69.4411 70.6127Z" fill="#CD3C0E"/>
<path d="M64.0713 74.7525C64.1143 75.2305 63.731 75.6557 63.2152 75.7021C62.6994 75.7485 62.2464 75.3986 62.2034 74.9205C62.1604 74.4425 62.5436 74.0173 63.0594 73.9709C63.5752 73.9245 64.0283 74.2744 64.0713 74.7525Z" fill="#CD3C0E"/>
<path d="M57.375 68.6978C57.375 71.8565 54.0731 74.4171 50 74.4171C45.9269 74.4171 42.625 71.8565 42.625 68.6978C42.625 65.5391 45.9269 62.9785 50 62.9785C54.0731 62.9785 57.375 65.5391 57.375 68.6978Z" fill="#FEF49A"/>
<path fill-rule="evenodd" clip-rule="evenodd" d="M59.375 68.6978C59.375 73.4044 54.6748 76.4171 50 76.4171C45.3252 76.4171 40.625 73.4044 40.625 68.6978C40.625 63.9913 45.3252 60.9785 50 60.9785C54.6748 60.9785 59.375 63.9913 59.375 68.6978ZM50 74.4171C54.0731 74.4171 57.375 71.8565 57.375 68.6978C57.375 65.5391 54.0731 62.9785 50 62.9785C45.9269 62.9785 42.625 65.5391 42.625 68.6978C42.625 71.8565 45.9269 74.4171 50 74.4171Z" fill="#C73609"/>
</svg>
