<?xml version="1.0" encoding="iso-8859-1"?>
<!-- Generator: Adobe Illustrator 19.0.0, SVG Export Plug-In . SVG Version: 6.00 Build 0)  -->
<svg xmlns="http://www.w3.org/2000/svg" xmlns:xlink="http://www.w3.org/1999/xlink" version="1.1" id="Capa_1" x="0px" y="0px" viewBox="0 0 512 512" style="enable-background:new 0 0 512 512;" xml:space="preserve">
<path style="fill:#C1E9FD;" d="M256,148.252c0,18.764-14.806,33.975-33.07,33.975s-33.07-15.211-33.07-33.975  s14.806-33.975,33.07-33.975S256,129.488,256,148.252z M246.551,7.5c-10.437,0-18.897,8.692-18.897,19.414  s8.46,19.414,18.897,19.414c10.437,0,18.897-8.692,18.897-19.414S256.988,7.5,246.551,7.5z M303.243,65.742  c-10.437,0-18.897,8.692-18.897,19.414s8.46,19.414,18.897,19.414s18.897-8.692,18.897-19.414S313.679,65.742,303.243,65.742z"/>
<path style="fill:#A4E0F7;" d="M256,148.252c0,18.764-14.806,33.975-33.07,33.975c-2.941,0-5.79-0.399-8.504-1.139  c14.142-3.856,24.566-17.093,24.566-32.835s-10.424-28.979-24.566-32.835c2.714-0.74,5.563-1.139,8.504-1.139  C241.194,114.277,256,129.488,256,148.252z M303.243,65.742c-3.062,0-5.945,0.765-8.504,2.094c6.16,3.199,10.393,9.744,10.393,17.32  s-4.233,14.121-10.393,17.32c2.558,1.329,5.441,2.094,8.504,2.094c10.437,0,18.897-8.692,18.897-19.414  S313.679,65.742,303.243,65.742z M246.551,7.5c-3.062,0-5.945,0.765-8.504,2.094c6.16,3.199,10.393,9.744,10.393,17.32  s-4.233,14.121-10.393,17.32c2.558,1.329,5.441,2.094,8.504,2.094c10.437,0,18.897-8.692,18.897-19.414S256.988,7.5,246.551,7.5z"/>
<path style="fill:#8EB55E;" d="M384.5,170.578v19.414c0,4.495-2.978,8.265-7.014,9.37l-8.378,94.677  c-0.261,2.952-1.82,5.619-4.234,7.242l-10.61,7.138l-15.789,178.425c-0.885,10-9.046,17.657-18.819,17.657H190.454  c-9.774,0-17.935-7.657-18.819-17.657l-15.789-178.426l-9.196-7.118c-2.13-1.648-3.483-4.145-3.724-6.874l-8.412-95.064  c-4.036-1.105-7.014-4.875-7.014-9.37v-19.414c0-5.361,4.23-9.707,9.449-9.707h238.103C380.27,160.871,384.5,165.217,384.5,170.578z  "/>
<path style="fill:#5BA14D;" d="M384.5,170.578v19.414c0,4.495-2.978,8.265-7.014,9.37l-8.378,94.677  c-0.261,2.951-1.82,5.619-4.234,7.242l-10.61,7.138l-15.789,178.425c-0.885,10-9.046,17.657-18.819,17.657h-25.508  c9.774,0,17.935-7.657,18.819-17.657l15.789-178.425l10.61-7.138c2.413-1.623,3.973-4.291,4.234-7.242l6.504-73.505  c1.006-11.369-7.707-21.172-18.819-21.172H134.514c-4.036-1.105-7.014-4.875-7.014-9.37v-19.414c0-5.361,4.23-9.707,9.449-9.707  h207.868h30.235C380.27,160.871,384.5,165.217,384.5,170.578z"/>
<path d="M375.051,153.371H263.194c0.204-1.691,0.306-3.4,0.306-5.119c0-11.357-4.632-22.346-12.709-30.149  c-2.979-2.879-7.727-2.796-10.605,0.183s-2.796,7.727,0.183,10.605c5.244,5.066,8.131,11.942,8.131,19.361  c0,1.731-0.16,3.443-0.476,5.119h-50.188c-0.316-1.676-0.476-3.387-0.476-5.119c0-14.598,11.471-26.475,25.57-26.475  c4.142,0,7.5-3.358,7.5-7.5s-3.358-7.5-7.5-7.5c-22.37,0-40.57,18.605-40.57,41.475c0,1.72,0.103,3.429,0.306,5.119h-45.718  c-9.345,0-16.948,7.719-16.948,17.207v19.414c0,5.796,2.878,11.074,7.413,14.214l8.042,90.881c0.425,4.798,2.833,9.225,6.604,12.143  l6.604,5.112l15.5,175.162c1.235,13.965,12.538,24.496,26.29,24.496h129.203c13.752,0,25.055-10.531,26.29-24.496l15.473-174.86  l7.641-5.14c4.315-2.902,7.055-7.569,7.519-12.804l8.008-90.494c4.535-3.14,7.413-8.418,7.413-14.214v-19.414  C392,161.09,384.397,153.371,375.051,153.371z M377,189.992c0,0.876-0.422,1.516-0.934,1.87h-40.699c-4.142,0-7.5,3.358-7.5,7.5  s3.358,7.5,7.5,7.5h33.926l-7.656,86.516c-0.062,0.693-0.417,1.322-0.95,1.681l-8.711,5.86h-26.058c-4.142,0-7.5,3.358-7.5,7.5  s3.358,7.5,7.5,7.5h20.153l-15.066,170.264C330.459,492.35,325.581,497,319.657,497H190.454c-5.924,0-10.803-4.65-11.349-10.818  l-15.067-170.265h133.535c4.142,0,7.5-3.358,7.5-7.5s-3.358-7.5-7.5-7.5H158.409l-7.169-5.549c-0.479-0.37-0.786-0.955-0.844-1.604  l-7.689-86.903h164.315c4.142,0,7.5-3.358,7.5-7.5s-3.358-7.5-7.5-7.5H135.934c-0.511-0.354-0.934-0.993-0.934-1.87v-19.414  c0-1.217,0.874-2.207,1.948-2.207h238.103c1.075,0,1.949,0.99,1.949,2.207V189.992z M246.551,53.828  c14.555,0,26.397-12.074,26.397-26.914S261.106,0,246.551,0s-26.397,12.074-26.397,26.914S231.996,53.828,246.551,53.828z   M246.551,15c6.284,0,11.397,5.345,11.397,11.914s-5.113,11.914-11.397,11.914s-11.397-5.345-11.397-11.914S240.267,15,246.551,15z   M303.243,112.07c14.555,0,26.397-12.074,26.397-26.914s-11.842-26.914-26.397-26.914c-14.556,0-26.397,12.074-26.397,26.914  S288.687,112.07,303.243,112.07z M303.243,73.242c6.284,0,11.397,5.345,11.397,11.914s-5.113,11.914-11.397,11.914  c-6.285,0-11.397-5.345-11.397-11.914S296.958,73.242,303.243,73.242z M234.209,463.73v0.971c0,4.142-3.358,7.5-7.5,7.5  s-7.5-3.358-7.5-7.5v-0.971c0-4.142,3.358-7.5,7.5-7.5S234.209,459.588,234.209,463.73z M300.349,404.518v0.971  c0,4.142-3.358,7.5-7.5,7.5s-7.5-3.358-7.5-7.5v-0.971c0-4.142,3.358-7.5,7.5-7.5S300.349,400.375,300.349,404.518z   M203.974,365.689v0.971c0,4.142-3.358,7.5-7.5,7.5s-7.5-3.358-7.5-7.5v-0.971c0-4.142,3.358-7.5,7.5-7.5  S203.974,361.547,203.974,365.689z M262.555,463.73v0.971c0,4.142-3.358,7.5-7.5,7.5s-7.5-3.358-7.5-7.5v-0.971  c0-4.142,3.358-7.5,7.5-7.5S262.555,459.588,262.555,463.73z M315.525,377.604c4.142,0,7.5,3.358,7.5,7.5v0.971  c0,4.142-3.358,7.5-7.5,7.5s-7.5-3.358-7.5-7.5v-0.971C308.025,380.961,311.383,377.604,315.525,377.604z"/>
<g>
</g>
<g>
</g>
<g>
</g>
<g>
</g>
<g>
</g>
<g>
</g>
<g>
</g>
<g>
</g>
<g>
</g>
<g>
</g>
<g>
</g>
<g>
</g>
<g>
</g>
<g>
</g>
<g>
</g>
</svg>
